<svg id="Layer_1" data-name="Layer 1" xmlns="http://www.w3.org/2000/svg" viewBox="0 0 42.6 28.8"><defs><style>.cls-1{fill:#337ab7;}</style></defs><path class="cls-1" d="M20.14.74a6.42,6.42,0,0,0-5,4.62,7.65,7.65,0,0,0,0,3.23,6.45,6.45,0,0,0,4.92,4.68,5.54,5.54,0,0,0,2.56,0,6.49,6.49,0,0,0,4.93-4.68,7.7,7.7,0,0,0,0-3.24A6.45,6.45,0,0,0,23,.87,7.68,7.68,0,0,0,20.14.74Z"/><path class="cls-1" d="M7.83,8a4.61,4.61,0,0,0-3.62,5.4,4.33,4.33,0,0,0,1.24,2.27A4.27,4.27,0,0,0,8.67,17a4.41,4.41,0,0,0,3.64-1.81,4.09,4.09,0,0,0,.87-2.5,4.16,4.16,0,0,0-1.33-3.46A4.55,4.55,0,0,0,7.83,8Z"/><path class="cls-1" d="M33.27,8a4.63,4.63,0,0,0-3.65,5.24A4.69,4.69,0,0,0,33.14,17a5.72,5.72,0,0,0,2.56-.18,4.59,4.59,0,0,0,2.83-3.15,5.65,5.65,0,0,0,0-2.28,4.81,4.81,0,0,0-2.33-2.91A4.92,4.92,0,0,0,33.27,8Z"/><path class="cls-1" d="M20,15.31a12.48,12.48,0,0,0-5.51,2.15,15.07,15.07,0,0,0-2.86,2.89,12.33,12.33,0,0,0-2.11,6.09c-.06.87,0,1.22.45,1.46.22.13,1,.14,11.41.14,12.47,0,11.5,0,11.79-.56a5.71,5.71,0,0,0-.1-2.4,11.94,11.94,0,0,0-8-9.22A13.26,13.26,0,0,0,20,15.31Z"/><path class="cls-1" d="M7,19A8.27,8.27,0,0,0,.35,26.56a1.68,1.68,0,0,0,.09,1c.26.5.26.5,4,.5,3.19,0,3.38,0,3.32-.14a6.09,6.09,0,0,1,0-2.1,13.51,13.51,0,0,1,2.09-6c.42-.64.43-.66.26-.72A13.83,13.83,0,0,0,7,19Z"/><path class="cls-1" d="M33.11,19a2.58,2.58,0,0,1-.39.09l-.3.05.45.7a13.65,13.65,0,0,1,1.87,4.56,9.06,9.06,0,0,1,.17,3.53c0,.14.13.15,3.32.15,3.73,0,3.73,0,4-.51a1.88,1.88,0,0,0,.09-1,8.29,8.29,0,0,0-4.77-6.9,6.88,6.88,0,0,0-3.17-.7A11.71,11.71,0,0,0,33.11,19Z"/></svg>