<?xml version="1.0" encoding="UTF-8"?><svg id="Layer_1" xmlns="http://www.w3.org/2000/svg" viewBox="0 0 19.17 17.86"><defs><style>.cls-1{fill:#646464;}</style></defs><path class="cls-1" d="M9,.24c-.3,.07-.59,.19-.86,.35-.15,.09-1.12,1.05-3.84,3.79C.27,8.46,.5,8.2,.5,8.7c-.01,.29,.11,.57,.34,.76,.32,.31,.79,.37,1.18,.17,.14-.07,1.02-.94,3.68-3.65,1.97-2,3.56-3.59,3.64-3.63,.08-.04,.17-.06,.26-.07,.1,0,.19,.03,.28,.07,.07,.04,1.66,1.63,3.64,3.63,2.65,2.71,3.55,3.58,3.69,3.65,.37,.19,.83,.13,1.14-.16,.22-.19,.35-.47,.34-.76,0-.48,.04-.44-1.59-2.09l-1.43-1.48v-1.62c0-1.08,0-1.69-.04-1.82-.09-.48-.52-.83-1.01-.82-.41-.01-.79,.23-.96,.61-.08,.15-.08,.22-.09,.85v.68l-1.14-1.14c-1.19-1.19-1.31-1.28-1.79-1.49-.52-.19-1.08-.24-1.63-.14h0Z"/><path class="cls-1" d="M9.42,4.34c-.11,.04-6.27,6.28-6.36,6.42-.04,.08-.05,.48-.05,2.49,0,1.59,0,2.46,.04,2.59,.13,.54,.47,1,.94,1.28,.42,.22,.43,.22,2.25,.22h1.65v-4.69h3.41v4.69h1.65c1.82,0,1.82,0,2.25-.22,.47-.28,.81-.74,.94-1.28,.02-.13,.04-1,.04-2.59,0-2.01,0-2.41-.05-2.49-.1-.15-6.25-6.38-6.37-6.42-.11-.04-.24-.04-.35,0h0Z"/></svg>