<?xml version="1.0" encoding="UTF-8"?><svg id="Layer_1" xmlns="http://www.w3.org/2000/svg" viewBox="0 0 20.18 19.62"><defs><style>.cls-1{fill:#646464;}</style></defs><path class="cls-1" d="M14.99,.32c-.94,.17-1.37,.34-1.96,.75-1.19,.84-1.91,2.4-1.72,3.72,.19,1.29,1.4,3.33,3.35,5.61,.5,.59,.69,.69,1.02,.53,.2-.1,1.13-1.2,1.94-2.32,1.38-1.89,2.04-3.38,1.96-4.42-.15-1.89-1.47-3.42-3.31-3.81-.29-.06-1.09-.1-1.28-.07Zm.82,2.41c.35,.07,.61,.22,.88,.49,.7,.69,.69,1.79,0,2.49-.7,.7-1.79,.7-2.5,0-.7-.7-.7-1.79,0-2.49,.45-.45,1.01-.62,1.63-.49Z"/><path class="cls-1" d="M3.69,6.19c-2.02,.81-2.85,1.16-2.93,1.23-.06,.06-.12,.16-.14,.24-.03,.09-.03,2.1-.03,5.7v5.57s.1,.13,.1,.13c.1,.13,.33,.26,.49,.26,.06,0,1.28-.47,2.72-1.05l2.62-1.05v-6.08c0-3.35,0-6.08,0-6.08,0,0-1.28,.51-2.83,1.13Z"/><path class="cls-1" d="M7.71,11.14v6.08l2.38,.95,2.38,.95V9.58l-.26-.36c-.69-.97-1.28-1.98-1.6-2.71l-.15-.35-1.25-.5c-.69-.27-1.31-.52-1.37-.55l-.12-.05v6.08Z"/><path class="cls-1" d="M19.43,8.07c-.71,1.16-2.24,3.14-2.84,3.69-.35,.32-.92,.48-1.42,.4-.45-.07-.75-.24-1.16-.69l-.36-.38v8.22l.18-.07c.1-.04,1.37-.55,2.84-1.14,2.94-1.17,2.86-1.13,2.91-1.47,.01-.09,.01-2.11,.01-4.48V7.83s-.16,.24-.16,.24Z"/></svg>