<?xml version="1.0" encoding="UTF-8"?><svg id="Layer_1" xmlns="http://www.w3.org/2000/svg" viewBox="0 0 20.45 16.22"><defs><style>.cls-1{fill:#646464;}</style></defs><path class="cls-1" d="M7.02,.48c-1.67,.35-2.94,1.57-3.39,3.24-.09,.34-.1,.45-.1,1.08s.01,.74,.11,1.09c.36,1.33,1.36,2.46,2.62,2.98,.65,.27,1.5,.38,2.15,.29,1.88-.25,3.38-1.61,3.81-3.46,.1-.43,.1-1.31,0-1.78-.38-1.79-1.78-3.15-3.54-3.46-.45-.08-1.23-.07-1.65,.02Z"/><path class="cls-1" d="M13.57,3.22c-.39,.05-.72,.16-.7,.22,.17,.45,.22,1.75,.09,2.36-.14,.64-.4,1.26-.75,1.82-.1,.15-.16,.28-.13,.29,.02,0,.25,.15,.5,.32,.75,.5,1.36,1.04,1.97,1.79l.11,.13,.34-.1c2.37-.69,3.3-3.53,1.79-5.49-.61-.79-1.57-1.29-2.6-1.35-.2,0-.47,0-.6,.02Z"/><path class="cls-1" d="M3.94,8.65c-.54,.32-1.05,.72-1.53,1.21-.96,.96-1.61,2.07-1.97,3.33-.16,.57-.27,1.17-.24,1.34,.02,.13,.16,.29,.32,.38,.06,.03,2.07,.04,7.4,.04h7.31l.13-.09c.07-.05,.16-.15,.2-.23,.07-.14,.07-.16,0-.55-.25-1.47-.92-2.86-1.94-3.97-.59-.64-1.24-1.16-1.92-1.55l-.19-.11-.22,.2c-.61,.56-1.53,1.02-2.42,1.2-.48,.1-1.47,.1-1.93,0-.95-.2-1.79-.61-2.43-1.19-.13-.11-.24-.21-.24-.21s-.16,.09-.34,.2Z"/><path class="cls-1" d="M16.74,9.93c-.34,.31-.9,.62-1.39,.77-.12,.04-.22,.07-.23,.08,0,0,.08,.18,.2,.39,.43,.78,.75,1.64,.92,2.46,.14,.69,.15,.92,.02,1.25-.02,.05,.24,.05,1.83,.05h1.85l.11-.1c.15-.14,.17-.25,.09-.66-.16-.84-.57-1.79-1.06-2.49-.29-.41-.95-1.1-1.33-1.38-.25-.18-.79-.53-.83-.53-.01,0-.09,.07-.18,.14Z"/></svg>