<svg id="Layer_1" data-name="Layer 1" xmlns="http://www.w3.org/2000/svg" viewBox="0 0 28.35 30.06"><defs><style>.cls-1{fill:#337ab7;}</style></defs><path class="cls-1" d="M12.62.83a7.48,7.48,0,0,0-3,1.24A8.81,8.81,0,0,0,8.1,3.66a6.55,6.55,0,0,0-.49,6.54A5.9,5.9,0,0,0,8.8,11.92a5.91,5.91,0,0,0,1.82,1.35,6.42,6.42,0,0,0,3.9.63,6.35,6.35,0,0,0,3.58-1.77,6.35,6.35,0,0,0,1.72-2.7A6.64,6.64,0,0,0,19,3.66,8.41,8.41,0,0,0,17.34,2,6.81,6.81,0,0,0,12.62.83Z"/><path class="cls-1" d="M8.6,14.4a14.09,14.09,0,0,0-3.1,1.86A13,13,0,0,0,.81,25c0,.36-.06,1.46-.06,2.44,0,1.67,0,1.79.11,2a.75.75,0,0,0,.34.34c.22.12.31.12,12.36.12s12.13,0,12.35-.12a.7.7,0,0,0,.34-.34c.11-.21.12-.33.12-1.81v-1.6l-.3.1a6.27,6.27,0,0,1-2.27.32,7.2,7.2,0,0,1-4.27-1.28,9.37,9.37,0,0,1-2.07-2.05,7.67,7.67,0,0,1-.94-6.74A9.83,9.83,0,0,1,17,15.3l.23-.44a2,2,0,0,0-.36.14,8.89,8.89,0,0,1-2.22.61,8.4,8.4,0,0,1-5.48-1.2l-.22-.14Z"/><path class="cls-1" d="M20.39,14.53c-1.23.42-2.28.79-2.34.82a.63.63,0,0,0-.21.19l-.09.13v2.11c0,2.36,0,2.36.28,3.2a6,6,0,0,0,1.58,2.43,9.35,9.35,0,0,0,2.51,1.83c.64.32.69.31,1.55-.15A9.31,9.31,0,0,0,25.9,23.4,6.12,6.12,0,0,0,27.46,21c.28-.81.29-.85.29-3.22V15.67l-.09-.13a.66.66,0,0,0-.22-.19c-.24-.13-4.58-1.58-4.7-1.58S21.61,14.11,20.39,14.53Zm4.66,2.62a.93.93,0,0,1,.6.59.83.83,0,0,1-.08.6c0,.06-.61.81-1.27,1.65C23,21.68,23,21.7,22.56,21.7a.93.93,0,0,1-.36-.06,11.61,11.61,0,0,1-.94-.76c-.86-.73-1-.92-1-1.23a.86.86,0,0,1,.86-.87c.22,0,.42.13.87.51a2.51,2.51,0,0,0,.45.35s.44-.52.94-1.15c.88-1.14,1-1.29,1.29-1.35A.51.51,0,0,1,25.05,17.15Z"/></svg>