<svg id="Layer_1" data-name="Layer 1" xmlns="http://www.w3.org/2000/svg" viewBox="0 0 31.56 32.54"><defs><style>.cls-1{fill:#337ab7;}</style></defs><path class="cls-1" d="M14.55.54A14.91,14.91,0,0,0,1.31,11.86,16.25,16.25,0,0,0,.92,16l0,.66.32,0,.49-.06.19,0V15.33a12.33,12.33,0,0,1,.43-3.49A13.83,13.83,0,0,1,9.61,3,13.65,13.65,0,0,1,18.29,1.8a13.43,13.43,0,0,1,7.08,3.78,13.42,13.42,0,0,1,3.94,7.92,17,17,0,0,1,0,3.63,13.74,13.74,0,0,1-11.88,11.8c-.39,0-.83.09-1,.09h-.25l.57-.58.57-.57L17,27.52l-.35-.35L15.4,28.39,14.18,29.6l1.22,1.22L16.62,32l.37-.37.36-.37-.61-.62c-.47-.47-.58-.62-.48-.62L17,30A14.88,14.88,0,0,0,30.36,17.07a18.57,18.57,0,0,0-.1-4.22A14.82,14.82,0,0,0,29,8.9a14.1,14.1,0,0,0-2.87-4,13.85,13.85,0,0,0-4-2.87A14.66,14.66,0,0,0,17.82.66,23.22,23.22,0,0,0,14.55.54Z"/><path class="cls-1" d="M7.66,11.4V15H24.22V7.77H7.66Zm3.08-2.06v.52h-1v1H8.7v-2h2Zm12.5.49v1h-1v-1H21.14v-1h2.1Zm-6.36-.27a2.1,2.1,0,0,1,.95,1,1.57,1.57,0,0,1,.14.86,1.52,1.52,0,0,1-.16.9,2.08,2.08,0,0,1-2.2,1.12A2.14,2.14,0,0,1,14,12.22a2.32,2.32,0,0,1,0-1.68A2,2,0,0,1,16.88,9.56Zm-4,1.81v.53H11.29V10.85h1.54Zm7.76,0v.53H19.05V10.85h1.54ZM9.74,12.43l0,.51h1V14h-2v-2.1l.51,0,.51,0Zm13.47.51v1l-1,0h-1V12.94h1.05v-1l.51,0,.51,0Z"/><path class="cls-1" d="M15.5,10.47a1,1,0,1,0,1.35,1.41,1.26,1.26,0,0,0,0-1A1.06,1.06,0,0,0,15.5,10.47Z"/><path class="cls-1" d="M.39,22v3.35H4.52V18.67h-1v3.08h-1V18.67H.39Zm3.13,1.55,0,.76H2.48V22.79l.51,0,.51,0Z"/><path class="cls-1" d="M6.39,19.13l-.8.45v2.21l0,2.21,2.77,1.16c1.53.64,2.83,1.17,2.89,1.19s11.28-3.41,12.44-3.82a.79.79,0,0,0,.54-.68.82.82,0,0,0-.3-.81c-.34-.29-.34-.29-3.86.73-1.82.52-3.38,1-3.48,1a10.65,10.65,0,0,1-1.45-.17l-3-.49c-2.23-.36-2-.29-1.93-.57a2.78,2.78,0,0,0,.05-.52v-.29l2,0,2,0,.21-.15a1,1,0,0,0-.13-1.73c-.22-.11-.37-.12-3.7-.12H7.19Z"/></svg>