<?xml version="1.0" encoding="UTF-8"?><svg id="Layer_1" xmlns="http://www.w3.org/2000/svg" viewBox="0 0 20.18 19.62"><defs><style>.cls-1{fill:#646464;}</style></defs><path class="cls-1" d="M1.86,.37c-.23,.13-.27,.24-.28,.75l-.02,.46-.21,.11c-.6,.31-.95,1-.85,1.68,.11,.78,.84,1.43,1.6,1.43,.19,0,.43,.13,.52,.28,.04,.06,.07,.19,.07,.29,0,.31-.23,.55-.53,.55-.19,0-.34-.08-.51-.29-.17-.2-.36-.28-.56-.25-.25,.05-.46,.3-.46,.56s.34,.67,.72,.87l.22,.11,.02,.4c0,.3,.03,.43,.08,.51,.17,.25,.52,.34,.77,.18,.19-.12,.26-.29,.28-.72l.02-.38,.19-.09c.26-.12,.57-.45,.71-.74,.25-.52,.22-1.14-.08-1.6-.29-.44-.68-.69-1.27-.78-.39-.06-.53-.13-.62-.31-.19-.36,.07-.82,.46-.82,.19,0,.31,.06,.53,.29,.11,.12,.26,.23,.32,.24,.41,.1,.79-.29,.67-.69-.06-.21-.42-.59-.69-.74l-.21-.11-.02-.44c-.02-.5-.08-.65-.28-.78-.16-.1-.41-.1-.57,0Z"/><path class="cls-1" d="M15.78,.36c-.09,.05-.5,.69-1.56,2.42-1.56,2.54-1.56,2.55-1.41,2.84,.11,.22,.28,.29,.69,.29h.36v6.13s-.02,6.13-.02,6.13h-.54s-.55,.02-.55,.02v-4.83c-.02-4.81-.02-4.83-.1-4.94-.04-.06-.13-.15-.19-.19-.11-.08-.15-.08-1.94-.08s-1.84,0-1.96,.08c-.07,.04-.16,.14-.21,.22q-.08,.15-.08,4.95v4.8h-1.11v-3.14c0-3.06,0-3.14-.08-3.27-.04-.07-.13-.16-.21-.21-.13-.08-.21-.08-1.93-.08-2.02,0-2,0-2.16,.28-.08,.13-.08,.2-.09,3.28v3.14s-.96,.01-.96,.01H.77s-.13,.16-.13,.16c-.18,.19-.21,.37-.1,.6,.06,.15,.11,.2,.25,.26,.17,.08,.34,.08,9.2,.08s9.04,0,9.17-.07c.29-.15,.4-.52,.24-.79-.11-.19-.22-.23-.67-.25l-.42-.02v-6.13s-.02-6.13-.02-6.13h.36c.41,0,.58-.07,.69-.29,.15-.29,.15-.29-1.41-2.84-1.06-1.74-1.47-2.37-1.56-2.42-.07-.04-.19-.08-.3-.08s-.23,.03-.3,.08Z"/></svg>