<?xml version="1.0" encoding="UTF-8"?><svg id="Layer_1" xmlns="http://www.w3.org/2000/svg" viewBox="0 0 20.18 19.62"><defs><style>.cls-1{fill:#646464;}</style></defs><path class="cls-1" d="M15,1.46v.64h1.67l-3.4,3.4-3.41,3.41-1.29-1.29-1.29-1.29-3.11,3.11-3.11,3.11,.45,.45,.45,.45,2.66-2.66,2.66-2.66,1.29,1.29,1.29,1.29,3.86-3.86,3.86-3.86v1.67h1.29V.81h-3.86v.64Z"/><path class="cls-1" d="M14.22,8.4l-.51,.51v9.9h5.14V8.91l-.51-.51-.51-.51h-3.09l-.51,.51Z"/><path class="cls-1" d="M7.79,12.26l-.51,.51v6.05h5.14v-6.05l-.51-.51-.51-.51h-3.09l-.51,.51Z"/><path class="cls-1" d="M1.36,14.83l-.51,.51v3.48H6v-3.48l-.51-.51-.51-.51H1.88l-.51,.51Z"/></svg>