<?xml version="1.0" encoding="UTF-8"?><svg id="a" xmlns="http://www.w3.org/2000/svg" viewBox="0 0 19.77 18.89"><defs><style>.b{fill:#646464;}</style></defs><path class="b" d="M4.49,.5s-.17,.03-.32,.05c-1.26,.2-2.44,1.09-3.04,2.27-.31,.62-.43,1.13-.43,1.87,0,.57,.04,.84,.2,1.33,.2,.63,.55,1.18,1.03,1.67,.59,.59,1.25,.95,2.12,1.17,.21,.05,.54,.06,2.45,.07,2.18,.01,2.21,.01,2.35-.06,.1-.05,.17-.12,.21-.21,.07-.14,.07-.17,.06-2.35-.01-2.39-.01-2.33-.22-2.95-.46-1.37-1.65-2.44-3.08-2.77-.27-.06-1.19-.12-1.34-.08Zm.93,2.17c.4,.1,.67,.26,.97,.56,.31,.3,.46,.57,.56,.97,.13,.5,.06,1.04-.18,1.5-.15,.29-.58,.72-.86,.86-.47,.25-1.01,.31-1.5,.18-.39-.1-.67-.26-.97-.56-.31-.3-.46-.57-.56-.97-.13-.5-.06-1.04,.18-1.5,.15-.28,.57-.71,.86-.86,.46-.25,1.01-.31,1.5-.18Z"/><path class="b" d="M4.57,3.72c-.88,.32-.96,1.52-.12,1.93,.29,.14,.64,.14,.93,0,.38-.19,.57-.51,.57-.94,0-.3-.07-.5-.26-.72-.25-.29-.75-.41-1.12-.28Z"/><path class="b" d="M14.07,.5s-.17,.03-.32,.05c-.82,.13-1.62,.55-2.24,1.18-.58,.58-.95,1.24-1.15,2.06-.07,.29-.07,.42-.08,2.51-.01,2.18-.01,2.21,.06,2.35,.05,.1,.12,.17,.21,.21,.14,.07,.17,.07,2.35,.06,2.39-.01,2.33-.01,2.96-.22,1.22-.41,2.24-1.44,2.65-2.68,.16-.48,.2-.76,.2-1.31,0-.29-.02-.62-.05-.76-.33-1.69-1.59-2.99-3.24-3.37-.27-.06-1.19-.12-1.34-.08Zm.93,2.17c.4,.1,.67,.26,.97,.56,.31,.3,.46,.57,.56,.97,.13,.5,.06,1.04-.18,1.5-.15,.29-.58,.72-.86,.86-.47,.25-1.01,.31-1.5,.18-.39-.1-.67-.26-.97-.56-.31-.3-.46-.57-.56-.97-.13-.5-.06-1.04,.18-1.5,.15-.28,.57-.71,.86-.86,.47-.25,1.01-.31,1.5-.18Z"/><path class="b" d="M14.15,3.72c-.88,.32-.96,1.52-.12,1.93,.29,.14,.64,.14,.93,0,.38-.19,.57-.51,.57-.94,0-.3-.07-.5-.26-.72-.25-.29-.75-.41-1.12-.28Z"/><path class="b" d="M4.44,10.09c-.98,.13-1.82,.54-2.5,1.22-.6,.6-.99,1.31-1.16,2.13-.08,.37-.09,1.24-.02,1.6,.17,.86,.57,1.61,1.18,2.22,.61,.61,1.36,1.01,2.22,1.18,.36,.07,1.23,.06,1.6-.02,1.47-.32,2.68-1.39,3.15-2.78,.21-.62,.2-.56,.22-2.95,.01-2.18,.01-2.21-.06-2.35-.05-.1-.12-.17-.21-.21-.13-.07-.2-.07-2.23-.07-1.15,0-2.13,.01-2.19,.02Zm.98,2.16c.4,.1,.67,.26,.97,.56,.31,.3,.46,.57,.56,.97,.13,.5,.06,1.04-.18,1.5-.15,.29-.58,.72-.86,.86-.47,.25-1.01,.31-1.5,.18-.39-.1-.67-.26-.97-.56-.31-.3-.46-.57-.56-.97-.13-.5-.06-1.04,.18-1.5,.15-.28,.57-.71,.86-.86,.46-.25,1.01-.31,1.5-.18Z"/><path class="b" d="M4.57,13.3c-.88,.32-.96,1.52-.12,1.93,.17,.08,.25,.1,.46,.1,.61,0,1.04-.43,1.04-1.04,0-.3-.07-.5-.26-.72-.25-.29-.75-.41-1.12-.28Z"/><path class="b" d="M10.54,10.14c-.08,.05-.16,.13-.2,.21-.07,.14-.07,.17-.06,2.35,.01,2.39,.01,2.33,.22,2.95,.35,1.03,1.13,1.92,2.12,2.42,.3,.15,.76,.31,1.12,.38,.36,.07,1.23,.06,1.6-.02,1.49-.32,2.71-1.41,3.17-2.83,.16-.48,.2-.76,.2-1.31s-.04-.83-.2-1.31c-.4-1.24-1.42-2.27-2.65-2.68-.63-.21-.56-.21-2.97-.22-2.17-.01-2.22-.01-2.35,.06Zm4.46,2.11c.4,.1,.67,.26,.97,.56,.31,.3,.46,.57,.56,.97,.13,.5,.06,1.04-.18,1.5-.15,.29-.58,.72-.86,.86-.47,.25-1.01,.31-1.5,.18-.39-.1-.67-.26-.97-.56-.31-.3-.46-.57-.56-.97-.13-.5-.06-1.04,.18-1.5,.15-.28,.57-.71,.86-.86,.47-.25,1.01-.31,1.5-.18Z"/><path class="b" d="M14.15,13.3c-.88,.32-.96,1.52-.12,1.93,.17,.08,.25,.1,.46,.1,.61,0,1.04-.43,1.04-1.04,0-.3-.07-.5-.26-.72-.25-.29-.75-.41-1.12-.28Z"/></svg>