<?xml version="1.0" encoding="UTF-8"?><svg id="a" xmlns="http://www.w3.org/2000/svg" viewBox="0 0 21.2 17.19"><defs><style>.b{fill:#646464;}</style></defs><path class="b" d="M1.5,.31c-.12,.02-.27,.07-.33,.11-.18,.1-.4,.34-.5,.56l-.09,.2V6.24c-.01,2.78,0,5.05,0,5.03,.01-.02,.35-1.67,.76-3.68,.45-2.16,.77-3.68,.81-3.75,.04-.07,.13-.15,.2-.2,.14-.08,.17-.08,7.66-.09h7.52v-.35c0-.61-.16-1-.5-1.23-.34-.23,0-.22-5.8-.22H5.94l-.17-.09c-.23-.12-.31-.28-.31-.61s-.11-.57-.31-.68c-.13-.07-.21-.08-1.78-.09-1.19,0-1.7,0-1.86,.04Z"/><path class="b" d="M3.1,4.74s-.51,2.52-1.14,5.57c-.85,4.13-1.13,5.57-1.12,5.71,.03,.25,.25,.45,.54,.49,.12,.01,4.04,.02,8.72,.01h8.51l.22-.11c.28-.13,.52-.39,.62-.64,.09-.24,1.16-9.76,1.12-10.02-.05-.39-.31-.74-.68-.92l-.18-.09H11.41c-4.57-.02-8.3,0-8.3,.01Z"/></svg>