<?xml version="1.0" encoding="UTF-8"?><svg id="a" xmlns="http://www.w3.org/2000/svg" viewBox="0 0 16.67 17.19"><defs><style>.b{fill:#646464;}</style></defs><path class="b" d="M13.31,.82c-.41,.12-.76,.38-1.01,.76-.19,.29-.27,.6-.27,.97,0,.53,.15,.9,.52,1.27,.37,.37,.75,.52,1.27,.52,1.36,0,2.21-1.41,1.59-2.64-.2-.41-.72-.81-1.17-.92-.24-.06-.69-.04-.94,.03Z"/><path class="b" d="M3.81,2.14c-.82,.13-1.51,.44-2.04,.93-.52,.48-.85,1.08-1.06,1.94-.07,.29-.07,.39-.09,3.7,0,2.4,0,3.49,.03,3.73,.08,.67,.34,1.38,.68,1.85,.18,.25,.56,.63,.81,.79,.44,.3,1.12,.55,1.76,.63,.18,.02,1.39,.04,3.53,.04,3.62,0,3.67,0,4.37-.23,1.3-.43,2.09-1.37,2.39-2.87,.05-.26,.06-.68,.07-3.64v-3.35h-.45c-.56,.03-.92-.04-1.4-.26-1.14-.54-1.85-1.75-1.74-3.01l.02-.3h-3.31c-2.47,0-3.38,.02-3.59,.05Zm7.24,4.57c.31,.16,.41,.49,.24,.79-.12,.22-2.21,2.89-2.31,2.96-.06,.04-.16,.06-.3,.06h-.21l-1.11-.84c-.61-.46-1.13-.83-1.15-.82-.02,.01-.47,.58-1,1.27-.86,1.11-.98,1.25-1.12,1.3-.27,.11-.58,0-.7-.27-.08-.17-.09-.29-.04-.43,.06-.16,2.36-3.12,2.48-3.19,.14-.08,.38-.09,.52-.01,.06,.03,.57,.42,1.13,.86,.57,.45,1.04,.81,1.06,.81s.45-.55,.97-1.22c.79-1.02,.96-1.23,1.08-1.28,.19-.08,.29-.08,.48,.01Z"/></svg>