<?xml version="1.0" encoding="UTF-8"?><svg id="a" xmlns="http://www.w3.org/2000/svg" xmlns:xlink="http://www.w3.org/1999/xlink" viewBox="0 0 20.57 21.22"><defs><style>.c{fill:none;}.d{fill:#ffffff;}.e{clip-path:url(#b);}</style><clipPath id="b"><rect class="c" x=".29" y=".32" width="20" height="20"/></clipPath></defs><g class="e"><g><path class="d" d="M9.39,.35c-1.93,.19-3.72,.9-5.28,2.1-.76,.59-1.75,1.69-2.32,2.59-.25,.39-.73,1.37-.9,1.84-.8,2.17-.8,4.7,0,6.86,.18,.49,.66,1.47,.91,1.86,.23,.36,.65,.93,.87,1.18l.16,.18,.06-.22c.28-1,.73-1.93,1.34-2.73,.24-.32,.9-1,1.24-1.27,.57-.46,1.26-.88,1.96-1.16,.2-.08,.36-.15,.36-.15,0,0-.1-.09-.24-.19-2.33-1.72-2.55-5.1-.46-7.11,.38-.37,.7-.59,1.2-.83,.64-.31,1.27-.45,2.01-.45s1.38,.14,2.01,.45c.5,.25,.81,.46,1.2,.83,2.08,2,1.89,5.34-.41,7.07-.13,.1-.26,.2-.27,.21-.02,.02,.1,.07,.26,.14,.97,.37,1.89,.98,2.66,1.76,.96,.97,1.6,2.09,1.97,3.43l.07,.23,.1-.11c.22-.26,.76-.99,.93-1.27,.25-.39,.73-1.37,.91-1.86,.79-2.16,.79-4.68,0-6.86-.17-.47-.65-1.45-.9-1.84-.8-1.25-1.97-2.43-3.22-3.22-.39-.25-1.37-.73-1.84-.9-.53-.19-1.33-.4-1.93-.49-.58-.09-1.86-.13-2.41-.08h0Z"/><path class="d" d="M10.09,4.01c-1.84,.1-3.28,1.63-3.28,3.46,0,1,.37,1.85,1.11,2.55,1.33,1.27,3.42,1.27,4.75,0,.74-.7,1.11-1.55,1.11-2.55,0-1.99-1.69-3.57-3.68-3.46h0Z"/><path class="d" d="M9.82,12.22c-.93,.09-1.64,.29-2.39,.66-1.69,.84-2.96,2.4-3.41,4.2-.05,.2-.1,.44-.12,.53-.02,.09-.03,.2-.05,.26-.02,.09,.02,.13,.34,.37,.48,.37,.94,.66,1.44,.92,3.47,1.83,7.59,1.47,10.75-.92,.42-.31,.39-.21,.24-.94-.45-2.18-2.13-4.05-4.3-4.77-.79-.27-1.76-.38-2.5-.31h0Z"/></g></g></svg>