<svg id="Layer_1" data-name="Layer 1" xmlns="http://www.w3.org/2000/svg" viewBox="0 0 29.53 30.06"><defs><style>.cls-1{fill:#337ab7;}</style></defs><path class="cls-1" d="M13.1.52a7.34,7.34,0,0,0-3,1.24A8.49,8.49,0,0,0,8.58,3.35a6.57,6.57,0,0,0-.49,6.54A5.72,5.72,0,0,0,9.28,11.6,5.68,5.68,0,0,0,11.11,13a6.32,6.32,0,0,0,3.9.63,6.41,6.41,0,0,0,3.57-1.76,6.41,6.41,0,0,0,1.72-2.7,6.64,6.64,0,0,0-.8-5.77,8.16,8.16,0,0,0-1.68-1.69A6.71,6.71,0,0,0,13.1.52Z"/><path class="cls-1" d="M9.08,14.08A14.14,14.14,0,0,0,6,16a12.94,12.94,0,0,0-4.69,8.76c0,.36-.06,1.46-.06,2.43,0,1.68,0,1.8.11,2a.8.8,0,0,0,.34.34c.23.11.31.11,12.36.11s12.13,0,12.35-.11a.7.7,0,0,0,.34-.34c.11-.21.12-.33.12-1.82V25.74l-.3.1a6.48,6.48,0,0,1-2.26.32A7.32,7.32,0,0,1,20,24.88a9.42,9.42,0,0,1-2.08-2.05A7.69,7.69,0,0,1,17,16.08a10.69,10.69,0,0,1,.45-1.1c.13-.23.23-.42.23-.43a1.34,1.34,0,0,0-.36.14,8.89,8.89,0,0,1-2.22.6A8.35,8.35,0,0,1,9.63,14.1L9.4,14Z"/><path class="cls-1" d="M22.79,13.52a5.72,5.72,0,0,0-1.54.52,5.52,5.52,0,0,0,1.34,10.32,7,7,0,0,0,2.23,0,5.3,5.3,0,0,0,2.75-1.48,5.52,5.52,0,0,0,1.6-2.95,7.63,7.63,0,0,0,0-2.13,5.53,5.53,0,0,0-4.5-4.3A6.68,6.68,0,0,0,22.79,13.52Zm1.77,2s-.06.9-.13,2-.14,2-.14,2-.05.08-.55.08H23.2l0-.28c0-.36-.25-3.53-.25-3.68v-.11h.82A5.13,5.13,0,0,1,24.56,15.52Zm-.56,5a.79.79,0,0,1-.17,1.52.77.77,0,0,1-.86-.78.74.74,0,0,1,.51-.73A.63.63,0,0,1,24,20.55Z"/></svg>