<svg version="1.2" fill="#1890ff" baseProfile="tiny" xmlns="http://www.w3.org/2000/svg" width="50" height="50" viewBox="0 0 50 50" overflow="inherit"><path d="M45 1h-40v40h15.093l5.439 8.05 5.44-8.05h14.028z"/>

<svg version="1.2" baseProfile="tiny" xmlns="http://www.w3.org/2000/svg" width="35" height="30" viewBox="-13 -9 50 50" overflow="inherit">
 <!-- <rect id="svg_3" height="282" width="527" y="1" x="1" stroke-width="0" fill="url('./markersicons/)"/> -->
<path  fill ="#ffffff" d="M37 7h-28v27c0 2.2 1.8 4 4 4h20c2.2 0 4-1.8 4-4v-5c6.076 0 11-4.925 11-11s-4.924-11-11-11zm0 17v-12c3.314 0 6 2.686 6 6 0 3.313-2.686 6-6 6zm-35 16v2.301c0 1.896 2.069 2.699 4.6 2.699h36.8c2.53 0 4.6-.803 4.6-2.699v-2.301h-46z"/></svg>

</svg>