<svg version="1.2" fill="#1890ff" baseProfile="tiny" xmlns="http://www.w3.org/2000/svg" width="50" height="50" viewBox="0 0 50 50" overflow="inherit"><path d="M45 1h-40v40h15.093l5.439 8.05 5.44-8.05h14.028z"/>
<svg version="1.2" fill="#ffffff" baseProfile="tiny" xmlns="http://www.w3.org/2000/svg" width="25" height="26" viewBox="-26 -13 50 50" overflow="inherit"><path d="M7.743 21.8h3.485v22.4h5.229v-19.2h5.229v19.2h5.228v-19.2h5.23v19.2h5.229v-22.4h3.484c.963 0 1.744-.716 1.744-1.6 0-.534-.288-1.004-.727-1.294l.003-.003-.026-.015-.045-.027-16.635-8.609v-2.522c3.072 1.412 5.601-1.02 9.585.442v-5.571c-3.986-1.462-6.514.968-9.585-.443v-.358c0-.443-.389-.8-.871-.8s-.87.357-.87.8v8.452l-16.635 8.607-.045.027-.025.017v.003c-.437.29-.724.761-.724 1.294-.001.884.78 1.6 1.742 1.6zm1.742 24.001l-3.485 3.199h36.602l-3.487-3.199z"/></svg>
</svg>