<svg version="1.2" fill="#1890ff" baseProfile="tiny" xmlns="http://www.w3.org/2000/svg" width="50" height="50" viewBox="0 0 50 50" overflow="inherit"><path d="M45 1h-40v40h15.093l5.439 8.05 5.44-8.05h14.028z"/>
<svg id="Layer_1"  fill="#ffffff" xmlns="http://www.w3.org/2000/svg"  width="37" height="30"  viewBox="-12 -11 50 50"><path d="m23.57,2.6c-.77.18-1.5.48-2.18.87-.38.23-2.83,2.64-9.7,9.57C1.49,23.37,2.07,22.69,2.07,23.95c-.03.73.29,1.44.85,1.91.8.77,2,.94,2.98.42.34-.18,2.56-2.37,9.31-9.21,4.99-5.06,9-9.06,9.19-9.17.2-.1.43-.15.65-.17.24.01.48.08.71.17.18.11,4.2,4.11,9.19,9.17,6.7,6.84,8.97,9.03,9.32,9.21.94.48,2.09.32,2.87-.4.56-.47.87-1.18.85-1.91,0-1.22.09-1.12-4.01-5.28l-3.6-3.74v-4.1c0-2.72,0-4.28-.1-4.6-.24-1.22-1.31-2.1-2.56-2.08-1.05-.03-2,.59-2.42,1.54-.19.38-.2.57-.23,2.14v1.72l-2.87-2.87c-3.02-3-3.31-3.23-4.52-3.76-1.31-.49-2.73-.61-4.11-.34Z"/><path d="m24.61,12.94c-.27.11-15.84,15.86-16.06,16.21-.11.21-.13,1.22-.13,6.3,0,4.02,0,6.23.1,6.54.33,1.36,1.19,2.53,2.39,3.23,1.07.57,1.09.57,5.68.57h4.17v-11.84h8.62v11.84h4.17c4.59,0,4.61,0,5.68-.57,1.2-.71,2.05-1.88,2.39-3.23.06-.32.1-2.52.1-6.54,0-5.08,0-6.09-.13-6.3-.24-.38-15.79-16.11-16.08-16.22-.29-.11-.6-.1-.88.01h.01Z"/></svg>
</svg>