<svg version="1.2" fill="#1890ff" baseProfile="tiny" xmlns="http://www.w3.org/2000/svg" width="50" height="50" viewBox="0 0 50 50" overflow="inherit"><path d="M45 1h-40v40h15.093l5.439 8.05 5.44-8.05h14.028z"/>
<svg version="1.2" fill="#ffffff" baseProfile="tiny" xmlns="http://www.w3.org/2000/svg" width="22" height="23" viewBox="-32 -23 50 50" overflow="inherit"><path d="M37 1c-.55 0-1 .45-1 1v14c0 .55-.45 1-1 1h-20c-.55 0-1-.45-1-1v-14c0-.55-.45-1-1-1h-9c-.55 0-1 .45-1 1v46c0 .55.45 1 1 1h9c.55 0 1-.45 1-1v-16c0-.55.45-1 1-1h20c.55 0 1 .45 1 1v16c0 .55.45 1 1 1h9c.55 0 1-.45 1-1v-46c0-.55-.45-1-1-1h-9z"/></svg>
</svg>