<?xml version="1.0" encoding="UTF-8"?><svg id="Layer_1" xmlns="http://www.w3.org/2000/svg" viewBox="0 0 16.21 15.29"><defs><style>.cls-1{fill:#646464;}</style></defs><path class="cls-1" d="M8.09,.32s-.86,.82-1.81,1.76c-1.51,1.52-1.72,1.74-1.74,1.83-.03,.16,0,.3,.09,.41,.14,.17,.18,.17,1.18,.17h.91v3.95l.08,.16c.05,.09,.13,.2,.21,.25,.23,.18,.33,.19,1.33,.18h.89s.17-.1,.17-.1c.19-.1,.35-.27,.4-.45,.02-.07,.03-.8,.03-2.05v-1.94h.91c1,0,1.04,0,1.18-.17,.09-.11,.12-.25,.09-.41-.02-.1-.22-.31-1.74-1.83-.99-.99-1.76-1.74-1.81-1.76-.12-.05-.26-.05-.38,0Z"/><path class="cls-1" d="M3.28,8.19c-1.19,.54-2.24,1.03-2.33,1.07l-.16,.08,.13,.06c.07,.04,1.75,.81,3.73,1.72,2.45,1.12,3.62,1.64,3.66,1.63,.05-.01,2.49-1.12,6.83-3.12,.34-.16,.6-.29,.59-.3-.01-.01-1.06-.5-2.32-1.08l-2.3-1.05v.69c-.04,.79-.06,.93-.25,1.3-.23,.44-.64,.8-1.13,.97l-.25,.09h-2.37l-.25-.09c-.49-.17-.91-.53-1.13-.97-.2-.38-.22-.52-.24-1.3v-.69s-2.18,1-2.18,1Z"/><path class="cls-1" d="M.78,11.15c0,.91,0,.88,.3,1.03,.73,.33,6.53,2.84,6.55,2.84,.02,0,.02-.27,.02-.75v-.75s-1.03-.47-1.03-.47c-.56-.26-1.32-.61-1.68-.77-.36-.17-1.44-.66-2.39-1.1-.95-.44-1.74-.79-1.75-.79s-.02,.34-.02,.76Z"/><path class="cls-1" d="M12.32,11.96l-3.42,1.57v.74c0,.51,0,.74,.03,.74,.03,0,5.97-2.58,6.53-2.83,.33-.15,.32-.12,.32-1.03,0-.42,0-.76-.02-.76-.01,0-1.56,.71-3.44,1.57Z"/></svg>