<?xml version="1.0" encoding="UTF-8"?><svg id="Layer_1" xmlns="http://www.w3.org/2000/svg" viewBox="0 0 14 14"><defs><style>.cls-1{fill:#646464;}</style></defs><path class="cls-1" d="M7,0c-1.38,0-2.74,.41-3.89,1.18C1.96,1.95,1.06,3.04,.53,4.32,0,5.6-.14,7.01,.13,8.37c.27,1.36,.94,2.61,1.92,3.58,.98,.98,2.23,1.65,3.58,1.92,1.36,.27,2.77,.13,4.04-.4,1.28-.53,2.37-1.43,3.14-2.58,.77-1.15,1.18-2.5,1.18-3.89,0-1.86-.74-3.64-2.05-4.95C10.64,.74,8.86,0,7,0h0Zm0,3c.15,0,.29,.04,.42,.13,.12,.08,.22,.2,.28,.34,.06,.14,.07,.29,.04,.43-.03,.15-.1,.28-.21,.38-.1,.1-.24,.18-.38,.21-.15,.03-.3,.01-.43-.04-.14-.06-.25-.15-.34-.28-.08-.12-.13-.27-.13-.42,0-.2,.08-.39,.22-.53,.14-.14,.33-.22,.53-.22Zm2,8.06H5v-1.12h1.44v-2.88h-.94v-1.12h2.06v4h1.44v1.12Z"/></svg>