<svg id="Layer_1" data-name="Layer 1" xmlns="http://www.w3.org/2000/svg" viewBox="0 0 31.56 32.54"><defs><style>.cls-1{fill:#337ab7;}</style></defs><path class="cls-1" d="M14.75.38a9.42,9.42,0,0,0-2.8.85,10.17,10.17,0,0,0-2,1.4,8.41,8.41,0,0,0-2.63,6,7.67,7.67,0,0,0,.52,2.7,64.88,64.88,0,0,0,5.74,11.19,2.34,2.34,0,0,0,3.83.75c.11-.12.54-.79,1-1.49,3-5,4.88-8.85,5.58-11.41a4.77,4.77,0,0,0,.19-1.8A5.59,5.59,0,0,0,24,6.86,8.5,8.5,0,0,0,21.54,2.6,8.36,8.36,0,0,0,17.49.5,10.63,10.63,0,0,0,14.75.38Zm1.81,4.51a3.41,3.41,0,0,1,2.59,3.49,3.38,3.38,0,0,1-6.75,0A3.39,3.39,0,0,1,15,4.89,3.73,3.73,0,0,1,16.56,4.89Z"/><path class="cls-1" d="M9.32,21.22a6.63,6.63,0,0,0-3.16,1.49,1.69,1.69,0,0,0-.63,1.4c0,1.79,2.9,3,7.93,3.43a52.22,52.22,0,0,0,5.77-.09c4.51-.57,6.79-1.69,6.79-3.34a1.69,1.69,0,0,0-.63-1.4,4.94,4.94,0,0,0-1.9-1.11A13.46,13.46,0,0,0,21.1,21c-.09,0-.25.23-.6.82-.44.75-.46.8-.34.83l.8.15A8.11,8.11,0,0,1,24.11,24c.12.12.12.13,0,.24-.88.7-3.15,1.28-5.94,1.51a41.46,41.46,0,0,1-4.73,0c-2.79-.23-5.05-.81-5.94-1.51-.14-.11-.14-.12,0-.23a4.46,4.46,0,0,1,1.22-.65,18.77,18.77,0,0,1,2.22-.58c.74-.12.72,0,.18-.92-.42-.71-.49-.8-.64-.82A7.87,7.87,0,0,0,9.32,21.22Z"/><path class="cls-1" d="M2.76,22.17A5.35,5.35,0,0,0,.59,24.23a2.71,2.71,0,0,0,0,2.51,6,6,0,0,0,1.74,1.79c2.1,1.37,5.8,2.34,10.27,2.71,1.22.1,5.13.1,6.37,0,4.47-.36,8.17-1.34,10.27-2.71A5.86,5.86,0,0,0,31,26.74a2.86,2.86,0,0,0-.73-3.48A6.08,6.08,0,0,0,28.53,22a.9.9,0,0,0-1.15,1.16c.1.25.17.32.71.67.91.59,1.39,1.13,1.39,1.6,0,.63-.85,1.42-2.2,2.06C23.39,29.38,16.12,30,9.91,29.1c-3.93-.59-7-1.88-7.71-3.2-.32-.63.06-1.25,1.27-2,.53-.35.61-.42.7-.67A.88.88,0,0,0,3.67,22C3.38,21.91,3.22,21.94,2.76,22.17Z"/></svg>