<svg id="Layer_1" data-name="Layer 1" xmlns="http://www.w3.org/2000/svg" viewBox="0 0 29.53 30.06"><defs><style>.cls-1{fill:#337ab7;}</style></defs><path class="cls-1" d="M12.13.52a7.46,7.46,0,0,0-3,1.24A8.49,8.49,0,0,0,7.61,3.35a6.6,6.6,0,0,0-.49,6.54A5.72,5.72,0,0,0,8.31,11.6,5.79,5.79,0,0,0,10.14,13a6.52,6.52,0,0,0,7.47-1.13,6.41,6.41,0,0,0,1.72-2.7,6.61,6.61,0,0,0-.8-5.77,8.36,8.36,0,0,0-1.67-1.69A6.73,6.73,0,0,0,12.13.52Z"/><path class="cls-1" d="M22.43,12.58a6.07,6.07,0,0,0-4.93,4.53,7.12,7.12,0,0,0,0,2.76A6,6,0,0,0,22,24.32a7.12,7.12,0,0,0,2.76,0,6.05,6.05,0,0,0,4.43-4.45,7.37,7.37,0,0,0,0-2.73,6.1,6.1,0,0,0-1.63-2.87,5.78,5.78,0,0,0-2.77-1.57A8.14,8.14,0,0,0,22.43,12.58Zm1.29,3.47c.34.18.45.45.45,1.09v.51h.51a1.45,1.45,0,0,1,.74.11.9.9,0,0,1,.46.74.89.89,0,0,1-.46.74,1.43,1.43,0,0,1-.74.12h-.51v.51c0,.64-.11.9-.45,1.08a.79.79,0,0,1-.81,0c-.34-.19-.45-.44-.45-1.07v-.51H22c-.63,0-.91-.13-1.09-.47a.83.83,0,0,1,.34-1.12,1.35,1.35,0,0,1,.75-.12h.51v-.53c0-.62.1-.84.44-1A.78.78,0,0,1,23.72,16.05Z"/><path class="cls-1" d="M8.12,14.08A14,14,0,0,0,5,16,12.94,12.94,0,0,0,.32,24.71c0,.36-.06,1.46-.06,2.43,0,1.68,0,1.8.11,2a.77.77,0,0,0,.35.34c.22.11.3.11,12.35.11s12.13,0,12.35-.11a.77.77,0,0,0,.35-.34c.1-.21.11-.33.11-1.82V25.74l-.3.1a6.44,6.44,0,0,1-2.26.32,7.32,7.32,0,0,1-4.27-1.28A9.42,9.42,0,0,1,17,22.83,7.66,7.66,0,0,1,16,16.08a8.83,8.83,0,0,1,.45-1.1l.22-.43a1.34,1.34,0,0,0-.36.14,8.89,8.89,0,0,1-2.22.6A8.35,8.35,0,0,1,8.66,14.1L8.43,14Z"/></svg>