<svg id="Layer_1" data-name="Layer 1" xmlns="http://www.w3.org/2000/svg" viewBox="0 0 29.53 30.06"><defs><style>.cls-1{fill:#337ab7;}</style></defs><path class="cls-1" d="M15.9,1.45A4.43,4.43,0,0,1,13.15,2a8.91,8.91,0,0,0-1.63.08,12,12,0,0,0-1.59.71L8.7,3.41,6,2.51,3.17,1.57c-.09,0-.1.25-.1,5.58,0,3.1,0,5.63,0,5.63l2.81-.93,2.8-.94.69.51a3.68,3.68,0,0,0,1.57.83c.18,0,1.33.06,3.16.05l2.87,0,.21-.16a1,1,0,0,0,.37-.88,1,1,0,0,0-.49-.68l-.19-.11.52,0c.46,0,.54,0,.73-.18A.94.94,0,0,0,18,8.69c-.2-.1-.25-.18-.11-.18s.49-.38.56-.64a.6.6,0,0,0,0-.49c-.07-.26-.39-.62-.57-.64s1.2,0,2.78,0l2.87,0,.21-.16a.93.93,0,0,0-.13-1.57c-.2-.11-.44-.11-4.39-.12-3.79,0-4.16,0-3.87-.09a3,3,0,0,0,2.16-2.23c.15-.7,0-1.14-.34-1.33S16.71,1.05,15.9,1.45Z"/><path class="cls-1" d="M24.35,1.6a4.85,4.85,0,0,0-1.41.53,5,5,0,0,0-1.31,1.23c-.38.56-.44.52.76.52A4.14,4.14,0,0,1,23.82,4c.35.12.36.12.59,0a2.22,2.22,0,0,1,1.44,0,1.8,1.8,0,0,1,.89.85,1.33,1.33,0,0,1,.2.86,1.35,1.35,0,0,1-.2.87,1.7,1.7,0,0,1-.85.82,2.1,2.1,0,0,1-1.48,0c-.23-.1-.24-.1-.59,0a3.8,3.8,0,0,1-1.43.13c-1.2,0-1.14,0-.76.51a4.51,4.51,0,0,0,1.19,1.15l.33.22-.28.71-1,2.59-.72,1.88h-.69a2.87,2.87,0,0,0-1.66.4,3.67,3.67,0,0,0-1.23,1.22,4.64,4.64,0,0,0-.23.42,10.39,10.39,0,0,1-1.52-.29l-1.5-.33,0-.34a2.61,2.61,0,0,0-.71-1.4,3.27,3.27,0,0,0-.66-.43,1.61,1.61,0,0,0-.95-.18A1.63,1.63,0,0,0,11,14a2.3,2.3,0,0,0-1.32,1.95l0,.44-1.56.52-1.57.53-.21-.33A3.27,3.27,0,1,0,2.61,22a3.94,3.94,0,0,0,1.87,0,3.36,3.36,0,0,0,2.2-2.2,2.77,2.77,0,0,0,.11-.92v-.6l1.58-.53L10,17.23l.09.13a2.64,2.64,0,0,0,1,.83,1.59,1.59,0,0,0,.94.18,1.56,1.56,0,0,0,.94-.18,2.25,2.25,0,0,0,1-.85c.12-.19.22-.28.3-.28s.75.14,1.5.31l1.38.31,0,.23a3.35,3.35,0,0,0,2.35,3.16,3.94,3.94,0,0,0,1.87,0,3.37,3.37,0,0,0,2.21-2.2,3.94,3.94,0,0,0,0-1.87,3.46,3.46,0,0,0-1.2-1.7,1.07,1.07,0,0,1-.3-.26s.44-1.22,1-2.63l1-2.56.29,0a7.69,7.69,0,0,0,.94,0,3.75,3.75,0,0,0,2.81-1.22A4.09,4.09,0,0,0,29.12,7a3.23,3.23,0,0,0,.15-1.26,3.29,3.29,0,0,0-.15-1.26A4.12,4.12,0,0,0,28.05,2.8a3.83,3.83,0,0,0-2.78-1.23A5,5,0,0,0,24.35,1.6ZM20.78,17.08a.92.92,0,0,1,.28,1.5.88.88,0,0,1-1.3,0A.92.92,0,0,1,20.78,17.08ZM3.91,18a.92.92,0,0,1,.28,1.5.88.88,0,0,1-1.3,0A.92.92,0,0,1,3.91,18Z"/><path class="cls-1" d="M24.62,20v8.67H21.81V22.62H19v6.09H16.19v-8.9H13.38v8.9H10.57v-8.9H7.76v8.9H5V23.56H2.14v6.09H27.43V11.38H24.62Z"/></svg>